<svg xmlns="http://www.w3.org/2000/svg" version="1.0" width="140.000000pt" height="140.000000pt" viewBox="0 0 140.000000 140.000000" preserveAspectRatio="xMidYMid meet">
<metadata>
Created by potrace 1.15, written by Peter Selinger 2001-2017
</metadata>
<g transform="translate(0.000000,140.000000) scale(0.100000,-0.100000)" fill="#000000" stroke="none">
<path d="M580 1304 c-187 -37 -358 -167 -438 -335 -50 -105 -65 -170 -65 -279 1 -169 60 -308 183 -431 227 -226 567 -249 827 -56 74 55 133 127 179 219 114 226 72 510 -104 694 -98 102 -208 163 -348 189 -91 18 -136 18 -234 -1z m302 -114 c65 -25 163 -89 152 -100 -11 -10 -402 -226 -427 -236 -16 -6 10 79 105 340 11 28 12 28 65 22 29 -3 76 -15 105 -26z m-278 -2 c-23 -76 -288 -824 -294 -831 -8 -10 -69 80 -93 138 -41 100 -49 233 -22 340 29 110 115 229 215 298 53 37 145 76 178 77 20 0 22 -4 16 -22z m544 -220 c17 -29 39 -73 48 -98 22 -61 30 -223 14 -291 -29 -124 -124 -262 -227 -327 -89 -56 -70 -71 -257 209 -92 138 -164 255 -159 259 4 4 100 59 213 120 113 62 232 128 265 146 33 19 62 34 65 34 3 0 20 -24 38 -52z m-368 -790 c0 -5 -36 -8 -79 -8 -57 0 -102 7 -158 25 -75 24 -153 67 -153 84 0 8 80 240 102 294 11 27 14 23 149 -180 77 -114 139 -211 139 -215z"/>
</g>
</svg>